<svg width="100%" height="100%" id="svg" viewBox="0 0 1440 700" xmlns="http://www.w3.org/2000/svg" class="transition duration-300 ease-in-out delay-150"><defs><linearGradient id="gradient" x1="50%" y1="100%" x2="50%" y2="0%"><stop offset="5%" stop-color="#0f5ff666"></stop><stop offset="95%" stop-color="#063faa66"></stop></linearGradient></defs><path d="M 0,700 C 0,700 0,175 0,175 C 124.97607655502392,145.4019138755981 249.95215311004785,115.80382775119617 333,115 C 416.04784688995215,114.19617224880383 457.16746411483257,142.18660287081343 547,165 C 636.8325358851674,187.81339712918657 775.3779904306222,205.4497607655502 878,218 C 980.6220095693778,230.5502392344498 1047.3205741626793,238.01435406698565 1135,230 C 1222.6794258373207,221.98564593301435 1331.3397129186603,198.49282296650716 1440,175 C 1440,175 1440,700 1440,700 Z" stroke="none" stroke-width="0" fill="url(#gradient)" class="transition-all duration-300 ease-in-out delay-150 path-0"></path><defs><linearGradient id="gradient" x1="50%" y1="100%" x2="50%" y2="0%"><stop offset="5%" stop-color="#0f5ff688"></stop><stop offset="95%" stop-color="#063faa88"></stop></linearGradient></defs><path d="M 0,700 C 0,700 0,350 0,350 C 102.70813397129191,335.799043062201 205.41626794258383,321.59808612440196 308,330 C 410.58373205741617,338.40191387559804 513.0430622009568,369.4066985645933 596,388 C 678.9569377990432,406.5933014354067 742.4114832535886,412.77511961722485 833,413 C 923.5885167464114,413.22488038277515 1041.311004784689,407.4928229665072 1147,396 C 1252.688995215311,384.5071770334928 1346.3444976076555,367.2535885167464 1440,350 C 1440,350 1440,700 1440,700 Z" stroke="none" stroke-width="0" fill="url(#gradient)" class="transition-all duration-300 ease-in-out delay-150 path-1"></path><defs><linearGradient id="gradient" x1="50%" y1="100%" x2="50%" y2="0%"><stop offset="5%" stop-color="#0f5ff6ff"></stop><stop offset="95%" stop-color="#063faaff"></stop></linearGradient></defs><path d="M 0,700 C 0,700 0,525 0,525 C 83.51196172248802,504.5311004784689 167.02392344497605,484.0622009569378 270,506 C 372.97607655502395,527.9377990430622 495.4162679425838,592.2822966507177 593,586 C 690.5837320574162,579.7177033492823 763.311004784689,502.8086124401913 843,477 C 922.688995215311,451.1913875598087 1009.3397129186603,476.4832535885168 1110,493 C 1210.6602870813397,509.5167464114832 1325.3301435406697,517.2583732057416 1440,525 C 1440,525 1440,700 1440,700 Z" stroke="none" stroke-width="0" fill="url(#gradient)" class="transition-all duration-300 ease-in-out delay-150 path-2"></path></svg>